GIL06_free2_RRA_states
nRows=4
nColumns=47

# SIMM Motion File Header:
name GIL06_free2_RRA_states
datacolumns 47
datarows 4
otherdata 1
range 0.37750000000000022000 0.37900000000000023000
endheader
time	pelvis_tx	pelvis_ty	pelvis_tz	pelvis_tilt	pelvis_list	pelvis_rotation	hip_flexion_r	hip_adduction_r	hip_rotation_r	knee_angle_r	ankle_angle_r	subtalar_angle_r	mtp_angle_r	hip_flexion_l	hip_adduction_l	hip_rotation_l	knee_angle_l	ankle_angle_l	subtalar_angle_l	mtp_angle_l	lumbar_extension	lumbar_bending	lumbar_rotation	pelvis_tx_u	pelvis_ty_u	pelvis_tz_u	pelvis_tilt_u	pelvis_list_u	pelvis_rotation_u	hip_flexion_r_u	hip_adduction_r_u	hip_rotation_r_u	knee_angle_r_u	ankle_angle_r_u	subtalar_angle_r_u	mtp_angle_r_u	hip_flexion_l_u	hip_adduction_l_u	hip_rotation_l_u	knee_angle_l_u	ankle_angle_l_u	subtalar_angle_l_u	mtp_angle_l_u	lumbar_extension_u	lumbar_bending_u	lumbar_rotation_u
      0.37750000000000022000	      0.36625334646201640000	      0.83696515495085777000	     -0.28927066717122651000	     -4.92933444045699880000	      0.71990421519149839000	     -0.49958172723705524000	     32.25919886065487700000	     -1.33316521183893500000	      9.93472751241638010000	    -34.05585105656305000000	      1.33999437797474590000	     -0.00000000000000177069	     -0.00000000000001175000	     -1.43431131638888920000	      6.03840138558951090000	     -1.42048451401919060000	     -0.46446009782438286000	      3.72692914552999130000	      0.00000000000004375733	     -0.00000000000010012960	      7.15820254328010910000	     -2.20364140783715000000	      4.98734106363515210000	      0.97724711706832945000	     -0.12355921473837247000	     -0.00809331851308780870	    -12.87433447862113100000	    -10.46513742167311300000	     43.94733195981532200000	     15.50735473853095800000	     12.55963847460290600000	     79.25282618639522500000	    379.05907065026491000000	    -97.25178772099864900000	     -0.00000000000000442409	     -0.00000000000011094684	    -58.54487845911378900000	     -6.11546965644022930000	     29.31682555199233100000	    -12.27351268638605800000	     76.28917002171233700000	      0.00000000000017590262	     -0.00000000000040471672	     13.93264786257409300000	     -4.31340109112310090000	    -29.35951906426974700000
      0.37800000000000022000	      0.36674210266801693000	      0.83690313407310768000	     -0.28927455858682394000	     -4.93579227786918920000	      0.71470389905046339000	     -0.47762589779028142000	     32.26693287187266200000	     -1.32694812931377220000	      9.97438023764482300000	    -33.86646410352084800000	      1.29132630617633870000	     -0.00000000000000177291	     -0.00000000000001180553	     -1.46353975679889480000	      6.03535338533896850000	     -1.40585627131872810000	     -0.47065519912563886000	      3.76506614249247430000	      0.00000000000004384854	     -0.00000000000010033948	      7.16521704442331050000	     -2.20586062519109930000	      4.97270446468850920000	      0.97777799714751523000	     -0.12452320925562202000	     -0.00747223009500254470	    -12.95664976336942900000	    -10.33649499354288900000	     43.87563065511144300000	     15.42912581773160200000	     12.30921912435480600000	     79.35674409220932500000	    378.48578479575400000000	    -97.41831863997622100000	     -0.00000000000000534513	     -0.00000000000011129844	    -58.36902426978892300000	     -6.07696298532710080000	     29.19535852679086200000	    -12.50726624552883600000	     76.25850104102967500000	      0.00000000000019431423	     -0.00000000000045013196	     14.12489394842450500000	     -4.56288467123739580000	    -29.18672215603592000000
      0.37850000000000023000	      0.36723112474505176000	      0.83684063284683363000	     -0.28927813930454199000	     -4.94229071968935240000	      0.70956734834486257000	     -0.45570644738730509000	     32.27462841060329200000	     -1.32085546595646290000	     10.01408291620442800000	    -33.67736821257964400000	      1.24257822381659520000	     -0.00000000000000177578	     -0.00000000000001186069	     -1.49268049288196350000	      6.03232398573614240000	     -1.39128994618055950000	     -0.47696771436291868000	      3.80318718361412290000	      0.00000000000004394922	     -0.00000000000010057742	      7.17232696654815260000	     -2.20820370192755580000	      4.95815449026586030000	      0.97831059190952296000	     -0.12548057123271694000	     -0.00685056184604365420	    -13.03674175286044200000	    -10.21008388498635700000	     43.80182465597571500000	     15.35344168600187600000	     12.06196067593640500000	     79.45262020824350200000	    377.89485490412329000000	    -97.57186260080848700000	     -0.00000000000000552768	     -0.00000000000011205085	    -58.19408362464202600000	     -6.04107757145146000000	     29.06914721361760100000	    -12.74312125907295200000	     76.22505373325677200000	      0.00000000000020968347	     -0.00000000000052076111	     14.31431570936594800000	     -4.80882441140834070000	    -29.01303279486796100000
      0.37900000000000023000	      0.36772041353938723000	      0.83677765462846532000	     -0.28928140906440780000	     -4.94882864614850340000	      0.70449344139079739000	     -0.43382442137205163000	     32.28228673145255100000	     -1.31488563878726610000	     10.05383150314392400000	    -33.48857218012476300000	      1.19375661213020520000	     -0.00000000000000177867	     -0.00000000000001191651	     -1.52173399668766280000	      6.02931186835475060000	     -1.37678791510818140000	     -0.48339866751921484000	      3.84129073023161770000	      0.00000000000004405599	     -0.00000000000010084134	      7.17953088461944850000	     -2.21066885396384640000	      4.94369157678058890000	      0.97884486277064608000	     -0.12643117253692651000	     -0.00622838884399186650	    -13.11459280858882400000	    -10.08591562502246000000	     43.72592934120910300000	     15.28026498394598300000	     11.81788167910355500000	     79.54036794129022800000	    377.28633672075574000000	    -97.71239504519668600000	     -0.00000000000000690101	     -0.00000000000011256716	    -58.02008076181642300000	     -6.00782866320816030000	     28.93818970167644600000	    -12.98105874660498800000	     76.18880973799453200000	      0.00000000000023435688	     -0.00000000000059004505	     14.50088415965251100000	     -5.05118996580415390000	    -28.83847435006679300000
